<svg xmlns="http://www.w3.org/2000/svg" width="326.304" height="386.18" viewBox="0 0 326.304 386.18"><defs><style>.a{fill:rgba(187,187,187,0.24);}.b{stroke:#000;}</style></defs><g transform="translate(-345.696 -165.82)"><g transform="translate(346.231 166.32)"><ellipse class="a" cx="96.5" cy="77" rx="96.5" ry="77" transform="translate(58.769 231.68)"/><path d="M250.678,148.306c2.764,5.325-23.25.535-27.311-8.806Z" transform="translate(74.886 95.189)"/><path d="M250.678,148.306c2.764,5.325-23.25.535-27.311-8.806Z" transform="translate(74.886 95.189)"/><path d="M250.678,148.306c2.764,5.325-23.25.535-27.311-8.806Z" transform="translate(74.886 95.189)"/><path class="b" d="M115.162,28.48c25.811-4.885,43.223,41.73,46.118,47.836l50.672-53.943M115.162,28.48l27.3-6.107m-27.3,6.107L74.769,42.73l-22.893,17.3L44.431,76.317,32.022,82.424,19.613,109.9l-7.445,10.178L7.2,133.314,1,151.634l6.2,14.249h4.964l7.445-23.409,12.409-15.267V114.993L44.431,102.78l7.445-15.267,11.168-11.2c9.927-5.089,16.108-15.267,27.3-16.285M115.162,28.48C110.62,38.658,99.3,59.218,90.344,60.032M115.162,28.48a329.743,329.743,0,0,0-14.018,31.552m7.813,269.716V244.253c0-12.214-7.813-2.714-7.813,0-2.482-5.089,1.857-26.463,7.813-42.747V151.634c-20.484-3.6-4.028-16.968,0-41.73,2.212-13.6-13.163-35.9-7.813-49.872m7.813,269.716c3.309,6.107,4.219,16.488-18.613,9.16m18.613-9.16c-15.718,0-41.446,1.832-18.613,9.16m0,0,35.986-9.16v-57l7.445-35.623c.413-11.875-5.956-49.872,0-49.872s11.168-19,8.686-35.623m69.49-129.26H193.338m18.613,0c30.195,28.838,68.7,71.856,53.814,74.3,8.272,10.178,25.562,30.534,28.54,30.534M211.951,22.374c2.986,8.683,6.233,19.275,9.142,30.534m-9.142,89.566v59.032c5.377,11.875,22.047,35.623,9.142,35.623l-9.142,35.623v57m0-187.275-29.781,9.16m29.781-9.16c11.287-.281-5.182-4.071,0-22.392,1.643-17.618,14.948-44.7,9.142-67.175m-9.142,276.841c8.273,8.481,21.1,25.038,6.2,23.409-18.613-2.036-34.745-5.089-24.818-14.249m18.613-9.16c-2.895,0-10.672,1.832-18.613,9.16m0,0-3.723-62.086,3.723-39.694c-7.032-11.875-19.11-35.623-11.168-35.623s3.309-33.248,0-49.872m-67.008,0h27.3m0,0H182.17M142.461,22.374h50.876m-50.876,0V17.285m50.876,5.089-50.876-5.089m50.876,5.089V1H142.461V17.285M294.3,127.207c2.978,0-4.964,38.167-17.372,14.758M294.3,127.207c1.768,0,11.5,15.8,16.517,23.721m-33.89-8.963c2.555,4.82,8.742,7.913,17.372,9.669,7.85,1.6,18.208,1.966,16.517-.706m-33.89-8.963,33.89,8.963m-33.89-14.561c-11.168-9.16,0-3.053,0-9.16s-6.2-7.125-27.3-33.587c-16.876-21.17-26.059-35.962-28.54-40.712M90.344,60.032h10.8" transform="translate(-1 -1)"/></g><path class="b" d="M892,912.871V802l34.27,34.317h46.51L997.258,802s9.791,0,9.791,13.2v42.237s7.344,5.28,0,13.2-17.135,42.237-34.27,42.237H892Z" transform="translate(-442.314 -608.316)"/></g></svg>