<svg xml:space="preserve" viewBox="0 0 100 100" y="0" x="0" xmlns="http://www.w3.org/2000/svg" id="圖層_1" version="1.1" style="height: 100%; width: 100%; background: rgb(255, 255, 255);" width="128px" height="128px"><g class="ldl-scale" style="transform-origin: 50% 50%; transform: rotate(0deg) scale(0.8, 0.8);"><g class="ldl-ani"><g class="ldl-layer"><g class="ldl-ani" style="transform: scale(0.91); transform-origin: 50px 50px; animation: 1.11111s linear -0.583333s infinite normal forwards running breath-e0bb0adc-df39-4295-8285-de66c51c150c;"><path fill="#fff" d="M38.5 38.4l1.8-.9c.9-.3 1.8-.4 2.7.1 1 .5 1.9.3 2.9-.3.9-.5 1.5-1.3 2.3-1.9.1.4-.2.6-.4.9-.5.6-1.2.8-1.6 1.5-.2 0-.4.1-.5.3l-.2.2c-.3 0-.6 0-.8.3-.8.3-1.7.4-2.6.5-.9.1-1.8.3-2.4 1-.1-.1-.3-.2-.4-.3-.2-.4-.6-.9-.8-1.4z" style="fill: rgb(255, 255, 255);"></path></g></g><g class="ldl-layer"><g class="ldl-ani"><g><g class="ldl-layer"><g class="ldl-ani" style="transform: scale(0.91); transform-origin: 50px 50px; animation: 1.11111s linear -0.611111s infinite normal forwards running breath-e0bb0adc-df39-4295-8285-de66c51c150c;"><path fill="#b93626" d="M60.3 79.9c-.4-.7-.9-.9-1.6-.7-.5.1-1 .1-1.5.1-1.7 0-3.3-.3-4.9-.7-3.8-.8-7.4-2.3-11.1-3.4.6.7 1.6 1 2.4 1.5.4.3.9.5 1.3.8.9.3 1.8.7 2.6 1.1 1.8.6 3.7 1.2 5.6 1.8-1.9-.2-3.7-.4-5.6-1-1-.1-2-.4-3-.8-3.1-.7-5.9-2-8.7-3.5-1.7-1.2-3.6-1.9-5.6-2.3.5.9 1.4 1.4 1.8 2.3 1.3 1.2 2.6 2.5 4 3.7-1.8-.7-3.6-1.6-5.2-2.6-2.5-1.5-4.8-3.2-6.7-5.4-1.9-1.8-3.3-3.9-4.5-6.4 0 .3 0 .4-.1.5.6 2.4 1.7 4.6 2.8 6.8.1.1.3.1.2.3-.1.1-.2-.1-.3-.2-1.8-1.6-3.3-3.5-4.3-5.6-.1-.2-.2-.5-.3-.8-1-1.9-1.4-4-1.6-6.2 0-.7-.3-1.2-1-1.4v4.1c0 1.2 0 2.4.2 3.6-.4-1.1-.8-2.1-1-3.2-.6-1.8-1-3.7-1.1-5.6-.3-.4-.2-.9-.2-1.3-.2-2.1-.4-4.1-.2-6.2.1-.9.5-1.8.1-2.8-.2.6-.5 1.2-.7 1.8v.2c0 .1-.1.1-.1.2-.2.9-.4 1.9-.8 2.8-.2 1-.3 2-.5 2.9.2.1.2.2.2.3.6 5.3 2.6 10.2 5.2 14.8 8.4 14.6 22.6 21 38.3 19h.3c.2 0 .3 0 .5-.1.2.1.4 0 .5-.1h.3c1.8-.2 3.5-.5 5.3-1.1.6-.5 1.4-.6 2.1-1 .4-.2.6-.4.2-.9-1.2-1.6-2.3-3.4-3.3-5.3z" style="fill: rgb(185, 54, 38);"></path></g></g><g class="ldl-layer"><g class="ldl-ani" style="transform: scale(0.91); transform-origin: 50px 50px; animation: 1.11111s linear -0.638889s infinite normal forwards running breath-e0bb0adc-df39-4295-8285-de66c51c150c;"><path fill="#b93626" d="M14.8 32.5c.2 0 .3-.2.5-.4.8-.9 1.5-1.8 2.4-2.6h.1s0-.1-.1-.1c-.3-.1-.6-.2-.8-.1 1-.3 2-.5 2.9-1.2-.6-.6-1.4-.6-2.1-1-.4-.1-.8-.2-1.2-.5h-.3c-.4-.1-.8.1-1.2.2-.2 1-.3 2-.2 2.9-.2.9-.1 1.9 0 2.8z" style="fill: rgb(185, 54, 38);"></path></g></g><g class="ldl-layer"><g class="ldl-ani" style="transform: scale(0.91); transform-origin: 50px 50px; animation: 1.11111s linear -0.666667s infinite normal forwards running breath-e0bb0adc-df39-4295-8285-de66c51c150c;"><path fill="#b93626" d="M30.3 62.2c1.7 1.4 3.5 2.4 5.4 3.4.2.1.4.1.7.1 1.1-.2 2.1-.8 3-1.4.1 0 .1.1.2.1.3-.1.6-.1 1 0 1.7.2 3.4.1 5.1-.2 2.5-.4 4.6-1.7 6.7-3.1.8-.7 1.8-1.2 2.8-1.8-1.1-.7-2.1-.3-3.2.3-1.9 1.1-4 1.6-6.2 1.7-1.4.1-2.9.2-4.3 0-1.7-.3-3.3-.9-4.8-1.8-.2-.1-.5-.3-.7-.3-.4-1.2-.7-2.5-1.1-3.7-.1-1.4-.2-2.8-.2-4.2 0-.4 0-.7.3-1 0-.5 0-1 .2-1.5 0-.3.1-.5.3-.7.5-.9 1.4-1.2 2.2-1.6-.1-.1-.3-.1-.4-.2h-.7c-1.3.1-2.5-.1-3.8.2-.1.2-.3.1-.4.2-1.6.4-3.2 1-4.4 2.2-2.8 2.6-3.2 6.8-.9 10.3.9 1.1 2.1 2 3.2 3zm4.3-6.8z" style="fill: rgb(185, 54, 38);"></path></g></g><g class="ldl-layer"><g class="ldl-ani" style="transform: scale(0.91); transform-origin: 50px 50px; animation: 1.11111s linear -0.694444s infinite normal forwards running breath-e0bb0adc-df39-4295-8285-de66c51c150c;"><path fill="#b93626" d="M71.8 72c-1.2.2-2.3.2-3.5.1-.3 0-.4.1-.5.3-1.7 1.9-3.5 3.8-5.5 5.5-.2.2-.4.4-.3.7.7 0 1.3-.5 1.9-.5.8-.3 1.6-.6 2.5-1l3.3-1.8c1.3-1 2.6-1.9 3.7-3.1-.5-.2-1-.4-1.6-.2z" style="fill: rgb(185, 54, 38);"></path></g></g><g class="ldl-layer"><g class="ldl-ani" style="transform: scale(0.91); transform-origin: 50px 50px; animation: 1.11111s linear -0.722222s infinite normal forwards running breath-e0bb0adc-df39-4295-8285-de66c51c150c;"><path fill="#b93626" d="M37.8 35.6c.2.9.1 2 .7 2.8l1.8-.9c-.1-1.2 0-2.4.2-3.6-.1 1.2-.2 2.4-.2 3.6.9-.3 1.8-.4 2.7.1 1 .5 1.9.3 2.9-.3.9-.5 1.5-1.3 2.3-1.9 0-.6-.5-1-.8-1.5-.4-.2-.7-.5-1.1-.7-.8-.2-1.5-.2-2.3-.2-1.2 0-2.3.1-3.4-.4-1.2-.8-2.1-1.8-2.7-3.2-.1.3-.2.7-.3 1 .1 1.8-.1 3.5.2 5.2z" style="fill: rgb(185, 54, 38);"></path></g></g><g class="ldl-layer"><g class="ldl-ani" style="transform: scale(0.91); transform-origin: 50px 50px; animation: 1.11111s linear -0.75s infinite normal forwards running breath-e0bb0adc-df39-4295-8285-de66c51c150c;"><path fill="#b93626" d="M21.6 27.1c-.3-.5-.7-.5-1.1-.8.8.1 1.6.3 2.3.2-.2-.4-.6-.3-.8-.5-.3-.1-.6-.2-.8-.4-.3-.2-.7-.3-.9 0-.4.5-1 .4-1.5.6-.4.1-.8.2-.9.6.1 0 .1.1.2.1 1.1.1 2.2.5 3.5.2z" style="fill: rgb(185, 54, 38);"></path></g></g></g></g></g><g class="ldl-layer"><g class="ldl-ani" style="transform: scale(0.91); transform-origin: 50px 50px; animation: 1.11111s linear -0.777778s infinite normal forwards running breath-e0bb0adc-df39-4295-8285-de66c51c150c;"><path fill="#8fd5e0" d="M73 30.7c0-.1.1-.1.2-.1-.1 0-.2 0-.2.1z" style="fill: rgb(143, 213, 224);"></path></g></g><g class="ldl-layer"><g class="ldl-ani"><g><g class="ldl-layer"><g class="ldl-ani" style="transform: scale(0.91); transform-origin: 50px 50px; animation: 1.11111s linear -0.805556s infinite normal forwards running breath-e0bb0adc-df39-4295-8285-de66c51c150c;"><path d="M75 49.4z" fill="#e0782b" style="fill: rgb(224, 120, 43);"></path></g></g><g class="ldl-layer"><g class="ldl-ani" style="transform: scale(0.91); transform-origin: 50px 50px; animation: 1.11111s linear -0.833333s infinite normal forwards running breath-e0bb0adc-df39-4295-8285-de66c51c150c;"><path d="M74.8 49.2z" fill="#e0782b" style="fill: rgb(224, 120, 43);"></path></g></g><g class="ldl-layer"><g class="ldl-ani" style="transform: scale(0.91); transform-origin: 50px 50px; animation: 1.11111s linear -0.861111s infinite normal forwards running breath-e0bb0adc-df39-4295-8285-de66c51c150c;"><path fill="#e0782b" d="M74.3 20c0 .1 0 .1 0 0z" style="fill: rgb(224, 120, 43);"></path></g></g><g class="ldl-layer"><g class="ldl-ani" style="transform: scale(0.91); transform-origin: 50px 50px; animation: 1.11111s linear -0.888889s infinite normal forwards running breath-e0bb0adc-df39-4295-8285-de66c51c150c;"><path fill="#e0782b" d="M90 39.7h-.2c-.3 1.6-.5 3.3-.8 4.9-.1-.2-.2-.3-.2-.5-.5-3.7-1.1-7.4-1.9-11.1-.7-2.9-1.8-5.6-3.3-8.1-.3-.4-.5-.9-1.2-1.2.3.8.5 1.5.7 2.1.2.7.3 1.3.5 2 .1.7.2 1.3.2 2-.4-.5-.7-1-.9-1.5-1.9-3.6-4.6-6.4-8.3-8.2-.1 0-.2 0-.3-.1-1.8-.6-3.5-1.2-5.3-1.6l-4.5-.9h-.7c-1.5-.1-3.1-.3-4.8.1.8.4 1.5.6 2.2.6.7 0 1.4.3 2 .5.7.2 1.4.2 2 .7.4.1.9.3 1.3.4 1.2.4 2.5.7 3.5 1.8-.9.1-1.6.1-2.3.2-.9.1-1.9.2-2.8.4-.9.2-1.8.4-2.6.6 0 .3.3.2.3.4.2.1.4-.1.5.2.2.1.4-.1.5.2 1.1.1 2.1.6 3.1.9.1 0 .3 0 .4.2.4-.1.6.2.9.3h.4c2.2 1.1 4.3 2.4 6 4.3.8 1 1.7 1.8 2.4 2.9.2.3.4.5.4.9.3.1.4.3.5.6.2.2.3.4.3.6.2.1.2.2.2.3.4.8.9 1.5.9 2.5v.3c.3.1.1.3.2.4.2.2.2.4 0 .5-.2.1-.3-.1-.4-.3-.2-.3-.5-.7-.7-1-.6-.5-1.1-1.1-2-1.3.4 1.2.6 2.5.7 3.7 0 .5.1.9.1 1.4 0 2 .2 4.1-.2 6.1 0 1.2-.3 2.4-.6 3.6 0 .1 0 .4-.2.4s-.3-.1-.4-.3c-.3-.4-.6-.9-.8-1.4-.1 0-.2-.1-.2-.2-.1 0-.2-.1-.2-.2-.1-.1-.2-.1-.2-.2-.4-.2-.7-.4-1.1-.6v.7c.1.7.1 1.5.2 2.2v2.6c-.1.4 0 .9-.2 1.3 0 .4.2.9-.2 1.3v.3c-.2 3.3-1.8 7.8-3.9 8.9 0-1.1.5-2 .6-3 .2-1 .6-2 .5-3.2-1 1.3-1.9 2.6-2.8 3.9.2.1.3.2.4.4l-.4-.4c-.3.3-.5.6-.8 1-.8.6-1.3 1.4-2.2 2-1.5 1.3-3.1 2.4-5 3.1-2 .9-4.2 1.1-6.4.9-4.8-.5-8.8-2.7-12.7-5.3l-.9-.6c-.1 0-.1-.1-.2-.1-.9.6-1.9 1.2-3 1.4-.3 0-.4 0-.7-.1-1.9-1-3.7-2-5.4-3.4-1.2-1-2.3-1.9-3.1-3.2-2.3-3.4-2-7.6.9-10.3 1.2-1.2 2.8-1.8 4.4-2.2.2 0 .3 0 .4-.2-.2-.2-.1-.3 0-.4-.1.1-.2.2 0 .4 1.2-.3 2.5-.2 3.8-.2h.7c.1.1.3.1.4.2 1.1.2 2.1.5 3.1.9.2.1.5.4.5-.2.1-1.4 0-2.8-.5-4.2 0-.3 0-.5-.3-.7-.1-.2.1-.3.1-.5-.3-.6-.6-1.2-1-1.7-.1-.1-.3-.2-.4-.3-.3-.5-.7-.9-.9-1.4-.6-.8-.5-1.8-.7-2.8-.3-1.7-.1-3.4-.2-5.1.1-.3.2-.7.3-1 .1-.5.2-1 .3-1.4.3-.8.6-1.5.9-2.3.1-.1.4-.1.4-.4.2-.2.3-.4.5-.6.4-.7 1-1.2 1.6-1.8h.2c0-.1.1-.1.1-.1.2-.4.5-.6 1-.6l.2-.2c0-.1.4-.3-.1-.3-.9 0-1.7.1-2.5.3-1.5.3-3 .7-4.3 1.5-.7.2-1.1.7-1.8 1-.1.2-.3.3-.4.5-.7.3-1 .9-1.5 1.3-1.2-.5-2.5-.4-3.7-.6h-1.1c-1 .1-2 0-2.9.4h-.2c-.7 0-1.4-.1-2.1-.3-.5-.5-1-1.1-1.5-1.6-.1-.1-.1-.3-.2-.4L20 23c-.9-1.4-1.5-2.9-1.7-4.8-1.9 2-3 4.2-3.5 6.7l-.3 1.5c.4 0 .8-.2 1.2-.2v-.3.3h.3c.3.3.7.4 1.2.5.7.4 1.5.4 2.1 1-.9.6-1.9.9-2.9 1.2.3 0 .6 0 .8.1v.1h-.1c-.9.7-1.7 1.7-2.4 2.6-.1.2-.2.4-.5.4 0 .3-.3.5-.4.8-.8 1.1-1.4 2.3-1.9 3.6h.4c0-.7.3-.9.6-.9-.3 0-.5.2-.6.9-.1.3-.1.5-.2.8-.3.6-.3 1.3-.4 2 0-.7.1-1.4.4-2 .1-.3.1-.5.2-.8h-.4c-.8 1.7-1.4 3.5-1.8 5.4-.3 1-.7 2.1-.7 3.2.4-.4.4-1 1-1.2 0 1.1-.5 2.2-.5 3.3-.3 1.2-.3 2.5-.3 3.8-.2 1.4-.1 2.9 0 4.3.4-.3.2-.9.5-1.2.2-1 .3-2 .5-2.9.4-.9.6-1.8.8-2.8 0-.1.1-.1.1-.2V48c.2-.6.5-1.2.7-1.8.5.9 0 1.9-.1 2.8-.2 2.1-.1 4.2.2 6.2 0 .4-.1.9.2 1.3.2 1.9.5 3.8 1.1 5.6.2 1.1.5 2.2 1 3.2-.2-1.2-.1-2.4-.2-3.6v-4.1c.7.2.9.7 1 1.4.1 2.1.6 4.2 1.6 6.2.1.3.2.5.3.8 1 2.2 2.5 4.1 4.3 5.6l.1-.1c-1.1-2.2-2.2-4.4-2.8-6.8 0-.1 0-.3.1-.5 1.2 2.5 2.7 4.6 4.5 6.4.2-.1.4-.2.6-.4-.2.1-.4.3-.6.4 2 2.2 4.3 3.9 6.7 5.4 1.7 1 3.4 1.9 5.2 2.6-1.4-1.2-2.6-2.5-4-3.7-.4-.9-1.3-1.4-1.8-2.3 2 .4 3.9 1.1 5.6 2.3l.1-.1-.1.1c2.8 1.4 5.6 2.7 8.7 3.5 1 .4 1.9.7 3 .8 1.8.6 3.7.7 5.6 1-1.9-.5-3.7-1.1-5.6-1.8-.8-.5-1.7-.8-2.6-1.1-.4-.3-.9-.5-1.3-.8-.8-.5-1.7-.8-2.4-1.5 3.7 1.1 7.3 2.5 11.1 3.4 1.6.4 3.2.7 4.9.7.5 0 1 0 1.5-.1.7-.2 1.2 0 1.6.7 1 1.9 2.2 3.8 3.3 5.6.3.5.1.7-.2.9-.7.4-1.5.5-2.1 1 2.5-.5 4.9-1.5 7.2-2.6 2.8-1.4 5.4-3.1 7.7-5.3.7-.3.9-1.1 1.5-1.4l.6-.6c3.7-3.9 6.3-8.5 8.2-13.6 2.2-5.9 3.3-12.1 3.5-18.4.6-1.7.6-3.7.6-5.6zm-71.2-9.5c.2.1.3.2.4.3-.1-.2-.3-.3-.4-.3zm-1.1 7.4c-.4.7-.8 1.4-1.3 2-.2.2-.3.4-.5.6-.3.5-.5 1-.8 1.5.3-.5.5-1 .8-1.5.2-.2.3-.4.5-.6.5-.7.9-1.3 1.3-2zm-2.9 2c-.1-.1-.2-.1-.4-.2.1.1.2.1.4.2zm-.6 11.5c.1.9.2 1.9.3 2.8-.1-.9-.2-1.8-.3-2.8 0-.1-.1-.1-.1-.2 0 .1.1.2.1.2zm5.1-20.4c.4-.2.7-.5 1-.8-.3.3-.6.6-1 .8zm3.1-1.3c-.2-.1-.4-.2-.6-.2.3 0 .5 0 .6.2zM18 26.9c-.1 0-.1-.1-.2-.1.1-.5.6-.5.9-.6.5-.2 1.1 0 1.5-.6.2-.2.6-.1.9 0 .3.1.5.2.8.4.2.2.6.1.8.5-.8.1-1.5-.2-2.3-.2.3.3.8.3 1.1.8-1.2.3-2.3-.1-3.5-.2zm1.5 1.9c-.4.4-.7.8-1 1.3.3-.5.7-.9 1-1.3zm-5.4 8.8c.1-.1.2-.1.3-.2-.1.1-.2.1-.3.2-.1.2-.2.3-.3.5.1-.2.2-.4.3-.5zM12.4 42v-.4c0 .1.1.3 0 .4-.3.6-.4 1.3-.4 2 0-.7.2-1.4.4-2zm6 23.5c.2-.1.4-.1.6-.2-.2.1-.4.1-.6.2zM75 25.6c-.2-.2-.4-.5-.6-.6l.6.6zm10.1 20.7c-.4-1.7-.7-3.5-1.1-5.2.3 1.7.7 3.4 1.1 5.2v0zm-3.6 1c-.4 1.5-.7 3-1.2 4.5.5-1.5.8-3 1.2-4.5v-.1.1zm.3-2.9c.1-.7.1-1.5.2-2.2 0 .7-.1 1.4-.2 2.2zm2.7 10.5c.2-.5.3-1.1.4-1.7-.1.6-.2 1.2-.4 1.7zM76 69.3c-.3.3-.7.6-1 .9l-.3.3c-.1-.1-.3-.2-.4-.2.1 0 .3 0 .4.2l.3-.3c.3-.3.6-.6 1-.9zm.8-5.7c-.1.4-.1.8-.2 1.2 0-.4.1-.8.2-1.2.1-.1.1-.3.1-.4 0 .1-.1.3-.1.4zm10.8-25c.1 1.1.2 2.3.2 3.4v0c0-1.2-.1-2.3-.2-3.4s-.3-2.2-.7-3.3c.3 1.1.6 2.2.7 3.3zm-3.3.1c-.2.5-.4 1-.7 1.4-.3-.6-.5-1.3-.7-1.9.2.6.5 1.3.7 1.9.3-.4.6-.9.7-1.4zM67.8 19.6c-.5-.2-.9-.4-1.4-.5-.5-.1-1-.2-1.5-.4.5.1 1 .2 1.5.4s1 .3 1.4.5c1.4.5 2.7 1.1 4 1.8.8.6 1.7 1.1 2.5 1.7-.8-.6-1.6-1.1-2.5-1.7-1.3-.7-2.6-1.2-4-1.8zm1.9 5.2c-1.1-.5-2.1-1-3.2-1.4 1.1.4 2.2.9 3.2 1.4zm-7.3 53c2-1.7 3.7-3.6 5.5-5.5.1-.2.1-.3.4-.3 1.2.1 2.3.2 3.5-.1.5-.1 1.1 0 1.6.2-1.1 1.2-2.4 2.1-3.7 3.1L66.4 77c-.8.3-1.6.6-2.5 1-.7 0-1.3.5-1.9.5 0-.3.1-.6.4-.7zm5 5.9c-.3.3-.6.5-1 .7.4-.2.8-.3 1-.7.4-.2.7-.5 1.1-.7-.4.3-.7.5-1.1.7zm12.5-9.9c.9-1 1.7-2.1 2.3-3.2-.6 1.1-1.4 2.2-2.3 3.2z" style="fill: rgb(224, 120, 43);"></path></g></g><g class="ldl-layer"><g class="ldl-ani" style="transform: scale(0.91); transform-origin: 50px 50px; animation: 1.11111s linear -0.916667s infinite normal forwards running breath-e0bb0adc-df39-4295-8285-de66c51c150c;"><path fill="#e0782b" d="M22.5 72.1c.1-.1-.1-.2-.2-.3l-.1.1c.1.2.2.4.3.2z" style="fill: rgb(224, 120, 43);"></path></g></g><g class="ldl-layer"><g class="ldl-ani" style="transform: scale(0.91); transform-origin: 50px 50px; animation: 1.11111s linear -0.944444s infinite normal forwards running breath-e0bb0adc-df39-4295-8285-de66c51c150c;"><path fill="#e0782b" d="M41.2 41.3c1-1.1 2.4-1.8 3.6-2.7.3-.1.5-.2.7-.4-.3 0-.6 0-.8.3-.8.3-1.7.4-2.6.5-.9.1-1.8.3-2.4 1 .3.6.6 1.2 1 1.7.2 0 .4-.2.5-.4z" style="fill: rgb(224, 120, 43);"></path></g></g><g class="ldl-layer"><g class="ldl-ani" style="transform: scale(0.91); transform-origin: 50px 50px; animation: 1.11111s linear -0.972222s infinite normal forwards running breath-e0bb0adc-df39-4295-8285-de66c51c150c;"><path fill="#e0782b" d="M48.3 36c-.1-.2-.1-.4-.2-.6.1.4-.2.6-.4.9-.5.6-1.2.8-1.6 1.5 1.3-.1 1.7-1 2.2-1.8z" style="fill: rgb(224, 120, 43);"></path></g></g><g class="ldl-layer"><g class="ldl-ani" style="transform: scale(0.91); transform-origin: 50px 50px; animation: 1.11111s linear -1s infinite normal forwards running breath-e0bb0adc-df39-4295-8285-de66c51c150c;"><path fill="#e0782b" d="M46.2 37.7c-.2 0-.4.1-.5.3.2.1.4 0 .5-.3z" style="fill: rgb(224, 120, 43);"></path></g></g><g class="ldl-layer"><g class="ldl-ani" style="transform: scale(0.91); transform-origin: 50px 50px; animation: 1.11111s linear -1.02778s infinite normal forwards running breath-e0bb0adc-df39-4295-8285-de66c51c150c;"><path d="M35.5 51.6z" fill="#e0782b" style="fill: rgb(224, 120, 43);"></path></g></g><g class="ldl-layer"><g class="ldl-ani" style="transform: scale(0.91); transform-origin: 50px 50px; animation: 1.11111s linear -1.05556s infinite normal forwards running breath-e0bb0adc-df39-4295-8285-de66c51c150c;"><path fill="#e0782b" d="M36 52.5c-.2-.1-.3-.3-.3-.5-.1-.1-.2-.2-.2-.3-.4-.4-.4-1-.5-1.5-.2.3-.2.6-.3 1-.1 1.4.1 2.8.2 4.2.4 1.2.7 2.5 1.1 3.7.3 0 .5.1.7.3 1.5.9 3.1 1.5 4.8 1.8 1.4.3 2.9.2 4.3 0 2.2-.2 4.3-.6 6.2-1.7 1.1-.6 2-1 3.2-.3.6-.1 1.1-.2 1.7-.1 1.1.1 1.8-.8 1.5-1.9-.2-.8-1-1.2-1.5-1.8-.9-.2-1.6-.8-2.5-1 .2.2.4.4.6.5-.2-.1-.4-.2-.6-.5h-.6c-1.6-.5-3.2-.2-4.7.4-1.5.6-3 1.4-4.7 1.5-3.5.3-6.1-1.3-8.4-3.8zm16.7 1.9c-.3 0-.7.1-1 .2.4-.1.7-.2 1-.2z" style="fill: rgb(224, 120, 43);"></path></g></g><g class="ldl-layer"><g class="ldl-ani" style="transform: scale(0.91); transform-origin: 50px 50px; animation: 1.11111s linear -1.08333s infinite normal forwards running breath-e0bb0adc-df39-4295-8285-de66c51c150c;"><path d="M35.7 52z" fill="#e0782b" style="fill: rgb(224, 120, 43);"></path></g></g></g></g></g><g class="ldl-layer"><g class="ldl-ani" style="transform: scale(0.91); transform-origin: 50px 50px; animation: 1.11111s linear -1.11111s infinite normal forwards running breath-e0bb0adc-df39-4295-8285-de66c51c150c;"><path fill="#5b9cc6" d="M79.4 37.8c-.1-.1.1-.4-.2-.4v-.3c0-.9-.5-1.7-.9-2.5 0-.1 0-.3-.2-.3 0-.3-.1-.5-.3-.6 0-.3-.2-.5-.5-.6.1-.4-.2-.6-.4-.9-.7-1.1-1.6-1.9-2.4-2.9-1.7-1.9-3.8-3.2-6-4.3-.1-.1-.3 0-.4 0-.3-.1-.5-.4-.9-.3-.1-.2-.3-.2-.4-.2-1-.4-2-.9-3.1-.9-.1-.3-.3-.1-.5-.2-.1-.3-.3-.1-.5-.2 0-.2-.4-.1-.3-.4.9-.2 1.7-.4 2.6-.6.9-.1 1.9-.2 2.8-.4.7 0 1.5-.1 2.3-.2-1-1.1-2.3-1.4-3.5-1.8-.4-.1-.9-.3-1.3-.4-.6-.5-1.3-.5-2-.7-.7-.2-1.3-.4-2-.5-.7 0-1.4-.2-2.2-.6 1.7-.4 3.2-.2 4.8-.1-.5-.4-1-.7-1.5-1.1L60 15.2l2.4 1.2c.5.4 1 .7 1.5 1.1h.7l4.5.9c1.8.4 3.5 1 5.3 1.6 0 .2.2.1.3.1-.1-.1-.1-.2-.3-.2 0-.2-.2-.3-.3-.4-5.7-4.6-12.3-7.4-19.6-8.3-.6-.1-1.2 0-1.7-.3h-6.2c-.1.3-.4.2-.6.2-5.4.5-10.5 2.1-15.3 4.8-3.6 2-6.8 4.7-9.7 7.7.1.1.1.3.2.4.5.5 1 1.1 1.5 1.6.7.2 1.4.3 2.1.3-.4-.6-1.1-1-1.7-1.4.6.4 1.2.8 1.7 1.4h.2c.9-.5 1.9-.3 2.9-.4h.9c-.2-.4-.4-.6-.7-.8.3.2.6.4.7.8h.2c.1-.6.1-1.2.3-1.8-.1.6-.2 1.2-.2 1.8 1.2.2 2.5.2 3.7.6.5-.4.8-1.1 1.5-1.3.1-.2.3-.3.4-.5-.7-.3-1.5-.6-2.2-.9.7.3 1.5.7 2.2.9.6-.3 1.1-.8 1.8-1 1.3-.8 2.8-1.2 4.3-1.5.8-.2 1.7-.3 2.5-.3.5 0 .1.2.1.3 0 0 0 .1.1.1 0 0 0-.1-.1-.1l-.2.2c-.4.1-.7.3-1 .6-.1 0-.2 0-.1.1h-.2c-.5.6-1.2 1-1.6 1.8-.2.2-.3.4-.5.6 0 .2-.3.2-.4.4-.3.8-.6 1.5-.9 2.3-.1.5-.2 1-.3 1.4.6 1.3 1.4 2.4 2.7 3.2 1.1.5 2.3.3 3.4.4.7 0 1.5 0 2.2.1.4.2.7.5 1.1.7.3.5.8.8.8 1.5.1.2.1.4.2.6-.6.8-1 1.7-2.2 1.7 0 .3-.2.3-.5.3l-.2.2c-.1.3-.4.4-.7.4-1.2.9-2.6 1.6-3.6 2.7l-.5.5c0 .2-.2.3-.1.5.3.1.3.4.3.7.5 1.4.5 2.8.5 4.2 0 .6-.4.2-.5.2-1-.5-2-.8-3.1-.9-1.1.6-2 .8-2.5 1.8 0 .4.2.7.4.8-.3-.2-.5-.4-.4-.8-.2.2-.3.5-.3.7-.3.5-.2 1-.2 1.5.1.5.2 1.1.5 1.5 0 .1 0 .3.2.3 0 .2.2.4.3.5 2.3 2.5 4.9 4.2 8.4 3.9 1.7-.1 3.2-.9 4.7-1.5s3.1-.9 4.7-.4h.6c.9.1 1.6.8 2.5 1 .5.6 1.3 1 1.5 1.8.3 1.1-.3 2-1.5 1.9-.6-.1-1.1 0-1.7.1-1 .5-2 1-2.8 1.8.5-.1.4.4.5.6-.1-.3 0-.7-.5-.6-2 1.4-4.1 2.8-6.7 3.1-1.7.2-3.4.4-5.1.2-.3 0-.7-.1-1 0l.9.6c3.9 2.6 7.9 4.9 12.7 5.3 2.2.2 4.3-.1 6.4-.9 1.9-.7 3.5-1.7 5-3.1.8-.6 1.4-1.4 2.2-2 .3-.3.5-.6.8-1 .9-1.3 1.8-2.5 2.8-3.9.1 1.2-.3 2.2-.5 3.2s-.6 1.9-.6 3c2.1-1 3.7-5.5 3.9-8.9v-.3c.3-.4.1-.9.2-1.3.2-.4.1-.9.2-1.3v-2.6c-.1-.7-.1-1.5-.2-2.2v-.7c.4.2.7.4 1.1.6.1.1.2.1.2.2s.1.2.2.2c0 .1.1.2.2.2.3.5.5.9.8 1.4.1.1.2.3.4.3s.2-.3.2-.4c.3-1.2.6-2.4.6-3.6.4-2 .2-4.1.2-6.1 0-.5-.1-.9-.1-1.4-.1-1.2-.3-2.5-.7-3.7.9.2 1.4.8 2 1.3.2.3.5.7.7 1 .1.1.2.4.4.3.1-.4 0-.6-.2-.8zm-4.6 5.6h-.3c.1-.1.2 0 .3 0zM47.9 33.2c-.2-.1-.3-.1-.5-.1.2 0 .3.1.5.1zM63 19c.1 0 .2.1.3.1-.1 0-.2-.1-.3-.1zm10 11.7c0-.1.1-.1.2-.1-.1 0-.2 0-.2.1zm-.3.7c.1-.2.3-.5.3-.7-.1.2-.2.4-.3.7zm.8 11.6c.2.2.4.2.6.3l-.6-.3zm-5 2.3c-.4-.1-.4-.1 0 0zm5.8-16c-.1.3-.2.5-.4.7.2-.2.3-.4.4-.7zM56.8 12.5c-.9-.2-1.7-.3-2.6-.4.9.1 1.7.2 2.6.4zm-5.2-.6h-1.3 1.3z" style="fill: rgb(91, 156, 198);"></path></g></g><metadata xmlns:d="https://loading.io/stock/"><d:name>mozilla firefox</d:name><d:tags>browser,fox,mozilla firefox,web application</d:tags><d:license>free</d:license><d:slug>q2yhlc</d:slug></metadata></g></g></svg>