<svg xmlns="http://www.w3.org/2000/svg" width="321.744" height="392.339" viewBox="0 0 321.744 392.339"><defs><style>.a{fill:rgba(187,187,187,0.24);}.b{stroke:#000;}.c{stroke:#707070;}</style></defs><g transform="translate(-347.256 -151.661)"><g transform="translate(4.559 -6.16)"><g transform="translate(343.231 158.32)"><ellipse class="a" cx="96.5" cy="77" rx="96.5" ry="77" transform="translate(57.21 237.839)"/><path d="M250.678,148.306c2.764,5.325-23.25.535-27.311-8.806Z" transform="translate(70.327 99.06)"/><path d="M250.678,148.306c2.764,5.325-23.25.535-27.311-8.806Z" transform="translate(70.327 99.06)"/><path d="M250.678,148.306c2.764,5.325-23.25.535-27.311-8.806Z" transform="translate(70.327 99.06)"/><path class="b" d="M115.162,28.961c25.811-4.971,43.223,42.459,46.118,48.673l50.672-54.886m-96.789,6.214,27.3-6.214m-27.3,6.214-40.393,14.5L51.876,61.064,44.431,77.634,32.022,83.847,19.613,111.808l-7.445,10.356L7.2,135.627,1,154.268l6.2,14.5h4.964l7.445-23.819,12.409-15.534V116.986l12.409-12.427,7.445-15.534L63.044,77.634c9.927-5.178,16.108-15.534,27.3-16.569m24.818-32.1C110.62,39.317,99.3,60.236,90.344,61.064m24.818-32.1a338.485,338.485,0,0,0-14.018,32.1M108.957,335.5v-86.99c0-12.427-7.813-2.762-7.813,0-2.482-5.178,1.857-26.925,7.813-43.495V154.268c-20.484-3.663-4.028-17.264,0-42.459,2.212-13.836-13.163-36.53-7.813-50.744M108.957,335.5c3.309,6.214,4.219,16.777-18.613,9.32m18.613-9.32c-15.718,0-41.446,1.864-18.613,9.32m0,0,35.986-9.32V277.5l7.445-36.246c.413-12.082-5.956-50.744,0-50.744s11.168-19.331,8.686-36.246m69.49-131.52H193.338m18.613,0,0,0c2.986,8.835,6.233,19.612,9.142,31.068m-9.142,91.132v60.064c5.377,12.082,22.047,36.246,9.142,36.246L211.951,277.5V335.5m0-190.549-29.781,9.32m29.781-9.32c11.287-.285-5.182-4.142,0-22.783,1.643-17.926,14.948-45.478,9.142-68.349M211.951,335.5c8.273,8.63,21.1,25.476,6.2,23.819-18.613-2.071-34.745-5.178-24.818-14.5m18.613-9.32c-2.895,0-10.672,1.864-18.613,9.32m0,0-3.723-63.171,3.723-40.388c-7.032-12.082-19.11-36.246-11.168-36.246s3.309-33.83,0-50.744m-67.008,0h27.3m0,0H182.17M142.461,22.747h50.876m-50.876,0V17.569m50.876,5.178-50.876-5.178m50.876,5.178V1H142.461V17.569M249.633,95.239c-16.876-21.54-26.059-36.591-28.54-41.424M90.344,61.064h10.8" transform="translate(-1 -1)"/><path class="c" d="M211.44,20.672s9.07,1.89,23.581,24.573S284,88.72,284,88.72V62.257l7.256-17.012V32.014L284-2.01h7.256V20.672l12.7-22.683V88.72s18.139,28.353,0,28.353H284L254.974,88.72,235.021,71.708l-14.511-18.9Z" transform="translate(-4.559 10.266)"/></g><path class="b" d="M892,912.871V802l34.27,34.317h46.51L997.258,802s9.791,0,9.791,13.2v42.237s7.344,5.28,0,13.2-17.135,42.237-34.27,42.237H892Z" transform="translate(-444.654 -608.316)"/></g><path class="c" d="M1806.788,1061.488l-12.319-43.117,12.319-24.638-12.319-36.957,26.691-28.744v195.051h-14.372v-61.6Z" transform="translate(-1266 -646)"/></g></svg>